<svg xmlns="http://www.w3.org/2000/svg" viewBox="0 0 400 400" role="img" aria-label="서울온라인학교 로고">
  <!-- 좌하단 작은 점 -->
  <circle cx="98" cy="288" r="42" fill="#7B2CBF"/>

  <!-- 우상단 청록 물방울 -->
  <path d="M318 70
           C 348 96, 344 168, 318 202
           C 298 200, 286 162, 296 118
           C 302 96, 310 78, 318 70 Z"
        fill="#20B89B"/>

  <!-- 메인 N 형태 + 좌상단 컬 -->
  <path fill="#7B2CBF" d="
    M 138 92
    Q 215 68, 286 108
    Q 322 134, 322 198
    L 322 360
    L 244 360
    L 244 220
    Q 244 180, 200 180
    Q 156 180, 156 220
    L 156 360
    L 78 360
    L 78 210
    Q 78 144, 138 92 Z"/>

  <!-- 컬 -->
  <path fill="#7B2CBF" d="
    M 140 90
    Q 96 102, 78 140
    Q 64 178, 78 210
    L 78 174
    Q 86 130, 138 110
    Q 142 100, 140 90 Z"/>
</svg>
